<?xml version="1.0" standalone="no"?>
<!DOCTYPE svg PUBLIC "-//W3C//DTD SVG 20010904//EN" "http://www.w3.org/TR/2001/REC-SVG-20010904/DTD/svg10.dtd">
<svg version="1.0" xmlns="http://www.w3.org/2000/svg" width="207.000000pt" height="209.000000pt"
        viewBox="0 0 447.000000 559.000000" preserveAspectRatio="xMidYMid meet">

        <g transform="translate(0.000000,559.000000) scale(0.100000,-0.100000)" fill="#27F5EE" stroke="none">
                <g fill="#040404">
                        <path d="M2125 3919 c-200 -17 -392 -91 -565 -218 -62 -46 -240 -223 -240
-240 0 -5 10 -11 23 -13 21 -3 22 -8 23 -96 1 -51 4 -95 6 -98 3 -2 35 41 72
96 60 90 70 100 97 100 34 0 34 2 -19 -77 l-35 -53 16 -47 c9 -27 29 -79 45
-118 49 -118 49 -115 9 -115 l-35 0 -38 100 c-22 55 -43 99 -49 97 -5 -2 -23
-23 -40 -48 -23 -34 -30 -55 -30 -94 0 -49 -1 -50 -32 -53 l-33 -3 0 192 c0
222 -2 224 -74 76 -56 -117 -91 -226 -111 -349 -19 -124 -19 -181 1 -315 68
-457 386 -815 835 -939 117 -32 322 -43 450 -24 233 33 456 147 630 320 207
206 315 455 326 753 6 154 -5 246 -44 377 -26 90 -41 113 -85 136 -35 18 -38
18 -38 -3 0 -10 18 -28 40 -41 39 -22 52 -42 28 -42 -7 0 -22 7 -32 15 -22 17
-56 20 -56 5 0 -5 18 -21 40 -35 22 -14 40 -32 40 -41 0 -14 -2 -14 -22 0 -12
9 -28 16 -35 16 -24 0 -13 -25 17 -43 34 -20 44 -55 11 -37 -27 14 -41 13 -41
-3 0 -8 11 -20 25 -27 14 -7 25 -17 25 -22 0 -4 -11 -8 -25 -8 -28 0 -32 -12
-10 -30 8 -7 15 -19 15 -26 0 -8 -6 -11 -15 -8 -17 7 -21 -16 -5 -32 6 -6 6
-22 0 -44 -6 -19 -10 -54 -10 -77 0 -33 -5 -46 -26 -62 -15 -12 -35 -21 -46
-21 -15 0 -17 3 -8 19 6 12 10 101 10 218 0 142 3 202 12 211 9 9 8 12 -4 12
-9 0 -18 6 -21 13 -7 19 -115 49 -160 45 -60 -5 -48 -21 28 -34 94 -16 132
-31 117 -46 -9 -9 -27 -8 -76 5 -74 20 -112 22 -122 6 -10 -16 15 -29 57 -29
60 0 139 -28 139 -49 0 -17 -5 -17 -82 6 -90 26 -123 27 -123 3 0 -10 12 -16
35 -18 19 -1 61 -9 93 -18 31 -8 62 -12 67 -9 6 4 10 -39 10 -121 l0 -127 -72
8 c-95 9 -218 48 -247 79 -18 19 -22 33 -19 72 3 49 3 49 43 54 50 6 56 33 8
38 -46 4 -41 18 8 26 46 7 49 29 5 34 -15 2 -29 11 -32 20 -3 9 -9 24 -14 33
-4 9 -2 25 6 40 7 13 13 19 14 13 1 -29 90 -25 90 3 0 12 -8 14 -35 10 -49 -8
-47 18 2 30 47 11 56 33 14 33 -17 0 -31 4 -31 9 0 11 25 21 51 21 10 0 19 7
19 15 0 10 -10 15 -30 15 -31 0 -37 13 -20 40 8 13 10 12 10 -2 0 -30 16 -20
32 21 9 21 25 44 37 50 l21 12 -21 -40 c-20 -38 -19 -61 2 -61 5 0 16 18 25
40 15 38 39 60 63 60 5 0 4 -12 -5 -27 -7 -16 -14 -36 -14 -45 0 -31 28 -19
47 20 21 43 47 51 93 27 67 -35 49 2 -60 118 -248 266 -589 398 -945 366z
m-311 -486 c3 -10 30 -99 60 -199 31 -99 56 -184 56 -188 0 -4 -14 -6 -32 -4
-29 3 -34 8 -48 50 l-15 48 -72 0 -71 0 -17 -50 c-14 -42 -21 -50 -41 -50 -13
0 -24 4 -24 9 0 4 13 50 29 102 16 52 44 140 61 197 l31 102 39 0 c28 0 40 -5
44 -17z m631 -13 c0 -23 -4 -25 -47 -28 l-48 -3 0 -175 0 -174 -35 0 -35 0 0
175 0 175 -100 0 -100 0 0 -175 0 -175 -35 0 -35 0 0 175 0 175 -50 0 c-49 0
-50 1 -50 30 l0 30 268 -2 267 -3 0 -25z m140 -50 c22 -44 43 -80 47 -80 4 0
26 36 48 80 37 74 43 80 70 80 l31 0 -61 -118 c-60 -118 -60 -119 -60 -206 l0
-87 -32 3 -33 3 -2 87 c-2 86 -2 88 -63 202 l-62 116 39 0 c38 0 39 -1 78 -80z
m-1017 -377 l-3 -28 -92 -3 -93 -3 0 -54 0 -55 75 0 75 0 0 -30 0 -30 -75 0
-75 0 0 -55 0 -55 33 -1 c17 -1 59 -2 92 -3 58 -1 60 -2 63 -28 l3 -28 -130 0
-131 0 0 200 0 200 131 0 130 0 -3 -27z m142 -143 l0 -170 85 0 85 0 0 -30 0
-30 -120 0 -120 0 0 200 0 200 35 0 35 0 0 -170z m300 -30 l0 -200 -35 0 -35
0 0 200 0 200 35 0 35 0 0 -200z m300 183 c26 -18 49 -43 50 -55 0 -3 -13 -10
-28 -16 -23 -8 -32 -6 -55 14 -34 29 -80 31 -107 4 -24 -24 -25 -43 -5 -64 16
-16 23 -18 102 -36 91 -21 129 -77 102 -154 -20 -58 -65 -81 -151 -80 -48 1
-75 7 -100 22 -37 23 -62 58 -53 72 12 19 58 10 81 -15 18 -20 33 -25 72 -25
104 0 119 85 19 110 -121 31 -157 60 -157 127 0 34 30 82 62 99 35 20 138 18
168 -3z m370 -158 c31 -93 60 -183 64 -198 7 -27 6 -28 -30 -25 -34 3 -38 7
-48 43 l-12 40 -80 3 -81 3 -13 -46 c-11 -40 -16 -45 -41 -45 -16 0 -29 4 -29
8 0 7 108 336 125 380 3 9 19 12 46 10 l41 -3 58 -170z m239 -64 c18 -18 20
-18 24 -3 3 12 6 9 12 -11 6 -24 12 -28 31 -23 13 4 24 2 24 -3 0 -5 12 -12
28 -14 22 -3 20 -4 -10 -6 -49 -1 -61 -21 -13 -21 l37 0 -4 -67 -3 -68 -37 -3
-38 -3 -1 53 -1 53 -11 -35 -11 -35 -4 33 c-4 35 -13 40 -32 17 -7 -9 -15 -13
-18 -10 -3 3 2 13 12 24 16 18 15 19 -16 26 l-33 8 28 4 c33 5 34 13 2 43 -14
13 -25 32 -25 42 0 24 34 24 59 -1z m-102 -193 l28 -11 -30 -6 c-22 -5 -35
-16 -48 -45 -10 -21 -16 -43 -14 -49 3 -7 8 -3 12 8 17 43 47 75 70 75 13 0
27 -4 30 -10 3 -5 -3 -10 -14 -10 -11 0 -29 -12 -40 -26 -32 -41 -25 -53 8
-14 32 39 38 38 43 -5 3 -26 0 -30 -22 -31 -52 -3 -118 -35 -125 -61 -3 -13
-16 -25 -30 -29 -47 -12 -60 19 -25 63 27 34 25 51 -2 27 l-22 -19 17 25 c9
14 22 35 27 48 11 25 40 30 40 7 0 -8 -4 -15 -10 -15 -5 0 -10 -5 -10 -11 0
-21 24 -3 33 25 7 20 6 30 -3 36 -9 5 -4 12 16 23 37 19 37 19 71 5z m-165
-18 c10 0 18 -4 18 -10 0 -5 -13 -10 -28 -10 -25 0 -31 -6 -40 -39 -17 -55
-14 -62 9 -18 21 41 45 52 32 15 -4 -13 -7 -36 -7 -51 1 -21 -3 -27 -16 -25
-9 2 -24 -3 -33 -10 -19 -16 -37 -8 -37 16 0 10 -9 23 -19 29 -21 13 -36 1
-60 -44 -16 -31 -35 -29 -28 3 l4 25 -22 -21 c-16 -15 -25 -18 -30 -10 -5 8
-10 8 -21 -1 -18 -15 -44 -5 -44 17 0 29 49 84 75 84 13 0 27 -4 30 -10 3 -6
-5 -10 -19 -10 -16 0 -32 -9 -42 -25 -23 -35 -9 -44 17 -12 25 33 43 35 36 5
-5 -18 1 -15 26 15 33 38 54 49 43 22 -8 -22 7 -18 22 5 20 33 42 25 37 -12
l-5 -33 14 35 c9 24 10 39 3 48 -7 8 -5 12 6 12 8 0 20 7 27 15 9 11 16 13 24
5 5 -5 18 -10 28 -10z m-422 -15 c0 -8 -13 -29 -29 -48 -30 -34 -55 -97 -32
-83 6 4 18 20 26 36 18 34 46 52 64 41 19 -12 4 -50 -25 -61 -29 -11 -32 -30
-5 -30 11 0 31 14 45 31 14 17 26 26 26 20 0 -6 -12 -22 -27 -36 -23 -21 -35
-25 -65 -22 -20 3 -41 0 -47 -6 -7 -7 -15 -6 -26 3 -12 10 -19 10 -27 2 -16
-16 -48 -15 -49 1 -4 40 34 87 72 87 10 0 19 4 19 9 0 5 12 23 26 40 27 33 54
41 54 16z m-292 -27 c2 -17 -9 -41 -33 -72 -20 -26 -35 -55 -33 -63 2 -10 11
-1 23 23 25 46 63 71 91 59 17 -8 16 -9 -9 -13 -18 -2 -35 -14 -47 -35 -26
-42 -17 -47 16 -8 26 31 51 33 39 3 -4 -12 -1 -11 16 4 22 19 22 19 11 -1 -17
-33 -49 -58 -57 -45 -5 8 -11 8 -21 -1 -7 -6 -20 -9 -29 -6 -8 4 -17 2 -20 -3
-8 -14 -43 -12 -47 1 -3 8 -14 6 -36 -5 -23 -12 -38 -14 -50 -7 -12 7 -22 5
-35 -7 -18 -16 -20 -16 -31 0 -12 16 -14 16 -30 0 -16 -16 -18 -16 -29 -1 -11
15 -15 15 -32 3 -25 -19 -44 -18 -67 3 -18 16 -19 15 -16 -27 3 -38 0 -46 -21
-56 -49 -25 -68 12 -30 60 29 37 19 32 -30 -14 -28 -27 -51 -40 -69 -40 -55 0
-69 49 -28 97 18 21 21 31 13 44 -27 43 35 108 89 95 25 -7 29 -25 14 -61 -7
-18 -8 -19 -15 -3 -4 10 -5 25 -1 33 8 22 -9 18 -43 -11 -38 -32 -42 -59 -7
-50 27 7 50 -14 25 -23 -44 -14 -93 -111 -56 -111 26 0 87 52 113 95 14 25 32
45 40 45 17 0 19 -27 2 -33 -7 -2 -9 -8 -5 -13 5 -5 13 -1 18 8 27 48 79 67
79 28 0 -11 -4 -20 -10 -20 -5 0 -10 5 -10 11 0 8 -5 8 -15 -1 -15 -13 -21
                        -60 -7 -60 19 0 55 35 68 66 20 49 37 44 29 -8 l-6 -43 20 25 c11 14 21 30 21
                        36 0 14 25 36 32 28 3 -3 2 -20 -2 -39 -9 -40 3 -38 25 5 18 34 46 52 64 41
                        19 -12 4 -50 -25 -61 -26 -10 -33 -30 -10 -30 25 0 63 43 80 92 32 87 77 123
                        84 66z m1004 13 c15 -18 15 -21 1 -32 -10 -9 -13 -23 -10 -47 5 -25 1 -38 -14
                        -53 -43 -43 -78 1 -40 52 25 33 26 43 7 36 -11 -4 -9 4 6 29 23 39 28 41 50
                        15z" />
                </g>
                <path d="M1757 3360 c-7 -18 -47 -151 -47 -156 0 -2 23 -4 50 -4 59 0 60 2 26
105 -14 41 -26 64 -29 55z" />
                <path d="M2567 2930 c-62 -162 -62 -160 9 -160 63 0 61 -12 19 108 -13 40 -25
61 -28 52z" />
                <path d="M2671 2422 c-14 -26 -7 -42 10 -25 6 6 9 19 7 29 -3 17 -5 17 -17 -4z" />
                <path d="M2233 2470 c-11 -16 -10 -18 1 -14 15 6 30 34 18 34 -4 0 -13 -9 -19
-20z" />
                <path d="M2100 2450 c-21 -21 -26 -40 -12 -40 10 0 52 43 52 53 0 13 -20 7
-40 -13z" />
                <path d="M1906 2512 c-10 -19 -15 -36 -13 -39 9 -8 39 45 35 59 -3 7 -12 -2
-22 -20z" />
                <path d="M1785 2429 c-4 -6 -5 -12 -2 -15 2 -3 7 2 10 11 7 17 1 20 -8 4z" />
                <path d="M1472 2318 c-14 -14 -16 -38 -3 -38 10 0 26 39 19 46 -2 2 -10 -2
-16 -8z" />
                <path d="M2920 2519 c0 -5 5 -7 10 -4 6 3 10 8 10 11 0 2 -4 4 -10 4 -5 0 -10
-5 -10 -11z" />
                <path d="M2886 2434 c-8 -21 -8 -24 3 -24 5 0 11 9 14 20 6 24 -8 27 -17 4z" />
                <path d="M2927 3344 c-21 -21 -5 -34 41 -34 26 0 71 -6 100 -13 50 -13 62 -13
62 4 0 21 -186 60 -203 43z" />
                <path d="M2910 3267 c0 -9 26 -17 78 -25 42 -6 90 -14 106 -18 46 -11 27 18
-25 38 -54 21 -159 24 -159 5z" />
                <path d="M2802 3148 c5 -15 48 -18 48 -3 0 6 -11 11 -26 13 -18 3 -25 0 -22
-10z" />
                <path d="M2780 3136 c0 -9 5 -16 10 -16 6 0 10 4 10 9 0 6 -4 13 -10 16 -5 3
-10 -1 -10 -9z" />
                <path d="M2855 3020 c-7 -11 -4 -12 80 -30 109 -22 128 -24 123 -9 -9 29 -188
63 -203 39z" />
                <path d="M2760 2938 c0 -31 6 -51 20 -66 27 -29 34 -28 14 3 -9 14 -14 39 -12
61 2 23 -2 39 -9 41 -9 3 -13 -9 -13 -39z" />
                <path d="M2817 2973 c-4 -3 -7 -25 -7 -49 0 -35 5 -47 31 -68 17 -14 38 -26
47 -26 12 0 7 8 -15 26 -29 23 -33 31 -33 75 0 46 -7 59 -23 42z" />
                <path d="M2895 2961 c-3 -6 -7 -29 -8 -52 -1 -34 4 -46 26 -65 28 -24 77 -33
77 -15 0 5 -9 13 -20 16 -30 9 -52 49 -48 86 3 32 -14 50 -27 30z" />
        </g>
</svg>